<svg xmlns="http://www.w3.org/2000/svg" width="72" height="27" viewBox="0 0 72 27" fill="none">
<path d="M52.101 25.0814C48.4782 25.0453 44.8112 24.422 41.567 22.8091C39.6238 21.8429 37.8683 20.5423 36.1512 19.2153C32.5646 16.4433 29.0785 13.5133 25.1953 11.1749C21.3123 8.83646 16.9552 7.09168 12.4242 6.96067C7.89315 6.82966 2.9535 9.00012 0.0704346 12.498C2.57455 10.2948 5.89057 9.00683 9.23111 9.02723C15.0355 9.06276 20.1404 12.7173 24.5673 16.4719C27.8959 19.2951 31.3412 22.2167 35.2945 24.2068C39.6316 26.3901 44.4559 27.1439 49.2752 26.6465C49.7037 26.6023 50.1312 26.5482 50.5573 26.4842C50.7636 26.4533 50.9694 26.4199 51.1747 26.3843C53.4195 25.9953 55.4279 25.1353 57.4942 24.214C55.818 24.9615 53.9362 25.0996 52.101 25.0814Z" fill="#0A9695"/>
<path d="M50.7626 17.69C47.1237 15.8574 43.7942 13.29 40.3597 11.1638C37.2095 9.21346 34.0097 7.32197 30.6574 5.72563C30.1848 5.5023 29.7135 5.26806 29.228 5.07394C27.4994 4.40453 25.698 3.92263 23.8658 3.64031C19.9426 3.03621 15.9964 3.58543 12.1049 4.18522C16.5721 3.49666 21.1805 4.33682 25.1493 6.4886C28.7983 8.46715 32.0489 10.8399 35.4405 13.2237C41.8697 17.7425 49.1371 23.4345 57.4941 23.006C62.0034 22.7748 66.0801 20.3922 69.3258 17.2215C65.8637 19.5221 61.5423 20.4948 57.4286 19.8994C55.0517 19.5554 52.8558 18.7443 50.7626 17.69Z" fill="#0A9695"/>
<path d="M61.9437 13.9563C58.3144 13.5366 55.0587 12.1772 51.9703 10.2626C47.4408 7.45476 43.0434 4.50208 38.3861 1.89616C35.7643 0.429205 32.3718 -0.140034 29.3883 0.0283243C27.1344 0.155599 25.1103 0.815144 22.9384 1.32146C26.2012 0.560787 29.649 1.04336 32.728 2.29273C35.9726 3.60924 38.6805 6.03521 41.4246 8.15597C42.8025 9.2209 44.1953 10.2701 45.654 11.2227C50.2384 14.2163 55.1271 15.9037 60.6332 15.7118C64.0559 15.5925 67.7984 15.0499 70.7446 13.1933C70.7748 13.1745 70.8046 13.1555 70.8345 13.1362C71.2291 12.8825 71.6084 12.605 71.9684 12.3043C69.734 13.9062 66.8931 14.2464 64.2146 14.1325C63.4596 14.1004 62.7004 14.0438 61.9437 13.9563Z" fill="#0A9695"/>
</svg>